<svg width="25" height="30" viewBox="0 0 25 30" fill="none" xmlns="http://www.w3.org/2000/svg">
  <path d="M20.5453 15.9381C20.5598 14.8074 20.8602 13.6988 21.4183 12.7153C21.9765 11.7319 22.7743 10.9057 23.7376 10.3134C23.1257 9.43946 22.3184 8.72022 21.3798 8.21282C20.4413 7.70543 19.3973 7.42387 18.3309 7.39051C16.0561 7.15172 13.8508 8.75172 12.6916 8.75172C11.51 8.75172 9.72519 7.41422 7.80327 7.45375C6.56013 7.49392 5.34859 7.85541 4.2867 8.50302C3.2248 9.15063 2.34877 10.0623 1.74396 11.1491C-0.8759 15.6851 1.07828 22.3515 3.58794 26.018C4.84358 27.8135 6.31105 29.819 8.23123 29.7479C10.1102 29.6699 10.812 28.5497 13.0801 28.5497C15.3272 28.5497 15.9856 29.7479 17.9447 29.7026C19.961 29.6699 21.2313 27.8993 22.4429 26.0868C23.3451 24.8075 24.0393 23.3937 24.4999 21.8975C23.3285 21.4021 22.3288 20.5728 21.6256 19.513C20.9224 18.4533 20.5466 17.2099 20.5453 15.9381Z" fill="white"/>
  <path d="M16.845 4.97906C17.9444 3.65934 18.486 1.96305 18.3548 0.250427C16.6753 0.426831 15.1238 1.22955 14.0096 2.49864C13.4649 3.11863 13.0476 3.8399 12.7818 4.62123C12.5159 5.40256 12.4067 6.22863 12.4603 7.05221C13.3004 7.06085 14.1314 6.87877 14.891 6.51967C15.6505 6.16056 16.3186 5.6338 16.845 4.97906Z" fill="white"/>
</svg>
